<svg width="716" height="3120" viewBox="0 0 716 3120" fill="none" xmlns="http://www.w3.org/2000/svg">
<path d="M130.328 39.2767C126.997 72.5863 93.9458 34.6146 113.564 33.888C125.819 33.4341 159.966 13.0484 159.966 40.6238C159.966 101.92 68.2424 71.818 88.5662 35.2351C93.9135 25.61 101.671 29.0282 110.271 25.2062C121.981 20.0016 127.415 17.7219 141.106 17.7219C151.68 17.7219 156.096 16.2517 162.062 23.7094C168.154 31.3241 167.509 43.5601 168.049 52.7484C168.615 62.3656 173.61 69.4661 159.816 75.5005C152.569 78.6712 138.98 83.8749 131.526 85.2301C108.011 89.5056 97.0413 83.8867 82.429 65.6213C73.9278 54.9948 73.0184 26.2099 87.219 18.3207C94.1236 14.4848 110.323 9.63893 118.204 9.63893C128.901 9.63893 136.793 4.25025 147.842 4.25025C164.06 4.25025 172.781 21.6161 180.922 31.7924C188.268 40.9753 196.258 77.3437 182.718 85.0804C167.708 93.6578 150.484 103.55 132.873 106.485C123.647 108.023 108.328 108.186 99.1938 106.036C83.7917 102.412 81.8689 93.8853 73.1485 82.9848C62.2767 69.395 62.9699 48.3985 62.9699 31.1936C62.9699 14.8663 89.9014 1.55591 103.385 1.55591" stroke="black" stroke-width="2" stroke-linecap="round"/>
<path d="M68.3586 114.718C57.4886 124.501 33.3322 132.839 33.3322 149.745" stroke="black" stroke-width="2" stroke-linecap="round"/>
<path d="M9.08302 184.771C14.7041 186.177 4.60129 208.307 3.54465 213.062C1.0641 224.225 1 234.962 1 246.741" stroke="black" stroke-width="2" stroke-linecap="round"/>
<path d="M1 297.934C6.67622 298.643 3.36098 318.683 7.73585 322.183C13.543 326.828 20.2122 350.182 22.5547 357.209" stroke="black" stroke-width="2" stroke-linecap="round"/>
<path d="M49.498 394.931C61.2177 407.953 72.1666 426.33 76.4414 443.429" stroke="black" stroke-width="2" stroke-linecap="round"/>
<path d="M92.6074 459.593C116.054 462.198 117.679 506.22 130.328 518.869" stroke="black" stroke-width="2" stroke-linecap="round"/>
<path d="M165.355 551.201C137.122 554.73 199.259 592.965 197.687 564.673C196.609 545.269 133.873 525.158 133.023 546.411C132.703 554.415 142.217 577.127 151.883 578.144C167.143 579.751 177.032 594.31 192.298 594.31C221.748 594.31 212.756 546.37 197.537 533.688C187.593 525.401 163.157 518.869 150.686 518.869C142.751 518.869 134.897 517.828 127.634 521.563C122.374 524.268 104.753 532.524 103.535 539.226C101.386 551.044 106.083 574.524 116.857 580.988C122.694 584.491 120.046 591.536 127.634 594.909C132.407 597.03 141.371 602.033 143.8 606.285C149.406 616.095 177.044 626.642 188.257 626.642C199.587 626.642 210.031 622.082 217.745 614.368C225.79 606.323 221.936 584.321 221.936 574.103C221.936 557.33 227.98 549.162 213.853 535.035" stroke="black" stroke-width="2" stroke-linecap="round"/>
<path d="M227.325 640.113C238.954 659.186 251.792 661.814 267.74 672.445" stroke="black" stroke-width="2" stroke-linecap="round"/>
<path d="M294.683 694.002C311.87 695.229 322.803 706.224 337.792 710.766C347.438 713.689 354.243 725.531 364.736 729.028" stroke="black" stroke-width="2" stroke-linecap="round"/>
<path d="M399.762 753.276C419.564 754.197 437.359 763.867 448.26 780.219" stroke="black" stroke-width="2" stroke-linecap="round"/>
<path d="M483.287 799.08C497.312 811.102 516.957 812.693 533.282 820.635C541.086 824.432 547.862 828.688 556.034 831.412" stroke="black" stroke-width="2" stroke-linecap="round"/>
<path d="M604.532 847.578C615.876 847.578 627.197 855.947 636.864 861.049C644.893 865.287 645.345 874.72 650.336 877.215" stroke="black" stroke-width="2" stroke-linecap="round"/>
<path d="M690.751 920.326C692.781 935.665 701.528 953.803 701.528 968.824" stroke="black" stroke-width="2" stroke-linecap="round"/>
<path d="M715 1017.32C713.668 1030.64 708.173 1043.19 704.223 1055.04" stroke="black" stroke-width="2" stroke-linecap="round"/>
<path d="M704.222 1095.46C695.457 1112.99 687.653 1128.39 677.279 1143.96" stroke="black" stroke-width="2" stroke-linecap="round"/>
<path d="M612.615 1216.7C605.909 1216.7 597.177 1216.61 599.293 1226.13C600.281 1230.58 627.136 1236.61 628.631 1231.37C634.849 1209.61 605.776 1205.11 591.06 1205.92C583.868 1206.32 584.319 1220.72 585.821 1225.98C587.316 1231.21 602.828 1240.31 607.077 1243.5C612.443 1247.52 628.278 1246.38 631.475 1250.38C638.586 1259.27 642.253 1239.36 642.253 1235.56C642.253 1226.62 641.042 1219.72 639.558 1211.31C638.875 1207.44 623.529 1198.83 620.099 1195.75C614.493 1190.7 577.589 1176.09 577.589 1191.11C577.589 1204.82 566.811 1215.98 566.811 1230.17C566.811 1243.34 608.246 1259.12 620.698 1259.81C627.39 1260.18 634.733 1265.2 640.906 1265.2C653.919 1265.2 645.307 1256.83 651.683 1251.73C655.06 1249.03 658.419 1237.58 658.419 1232.87C658.419 1224.73 654.818 1215.2 647.641 1210.71C641.965 1207.17 634.851 1194.47 631.475 1188.56C628.124 1182.7 617.67 1181.72 612.765 1177.63C600.57 1167.47 584.129 1167.21 569.356 1170.9C536.886 1179.02 564.854 1191.62 555.435 1212.81C549.938 1225.18 521.83 1230.83 541.215 1246.34C547.618 1251.46 553.134 1256.28 559.327 1261.91C562.983 1265.23 570.734 1281.12 574.894 1281.37C581.191 1281.74 587.811 1286.41 593.755 1286.76C603.588 1287.33 609.474 1286.46 618.004 1292.14" stroke="black" stroke-width="2" stroke-linecap="round"/>
<path d="M572.2 1289.45C566.509 1290.16 561.175 1307.4 554.836 1310.86C547.2 1315.02 542.629 1327.13 534.479 1332.56" stroke="black" stroke-width="2" stroke-linecap="round"/>
<path d="M504.841 1354.11C495.941 1367.2 484.724 1369.27 470.414 1374.47C465.482 1376.26 458.667 1373.71 456.343 1378.36" stroke="black" stroke-width="2" stroke-linecap="round"/>
<path d="M407.845 1408C389.93 1408 378.308 1415.9 362.041 1420.87C354.156 1423.28 347.827 1425.28 343.181 1432.25" stroke="black" stroke-width="2" stroke-linecap="round"/>
<path d="M321.626 1445.72C307.346 1453.65 262.351 1458.04 262.351 1480.75" stroke="black" stroke-width="2" stroke-linecap="round"/>
<path d="M211.158 1499.61C202.92 1507.16 170.743 1520.33 170.743 1531.94" stroke="black" stroke-width="2" stroke-linecap="round"/>
<path d="M151.883 1553.5C141.574 1553.93 140.667 1564.62 150.536 1566.82C156.108 1568.06 161.419 1568.23 165.953 1571.76C173.687 1577.77 162.794 1547.39 153.23 1545.26C146.95 1543.87 142.471 1542.72 135.717 1542.72C128.656 1542.72 123.046 1551.72 116.857 1555.59C109.295 1560.32 139.128 1575.09 142.453 1577.74C148.122 1582.28 165.279 1591.89 169.396 1584.48C178.368 1568.33 182.593 1563.89 168.049 1550.8C157.876 1541.65 141.325 1526.55 126.287 1526.55C118.618 1526.55 114.567 1532.32 114.162 1540.02C113.598 1550.75 99.6109 1557.76 93.2062 1564.87C71.2012 1589.32 121.245 1609.58 139.609 1612.92C154.284 1615.59 165.908 1619.08 181.521 1618.16C184.261 1618 186.909 1579.98 186.909 1573.7C186.909 1558.73 176.657 1547.39 169.396 1534.49C159.722 1517.29 147.672 1521.16 129.729 1521.16C114.97 1521.16 101.02 1517.89 93.9547 1533.44C87.9778 1546.59 93.7467 1561.99 87.2188 1575.05" stroke="black" stroke-width="2" stroke-linecap="round"/>
<path d="M149.189 1634.33C148.719 1643.26 131.416 1676.78 136.316 1682.22C142.314 1688.89 143.8 1689.37 143.8 1698.99" stroke="black" stroke-width="2" stroke-linecap="round"/>
<path d="M146.494 1739.4C150.697 1752.95 171.956 1808.81 151.883 1812.15" stroke="black" stroke-width="2" stroke-linecap="round"/>
<path d="M170.743 1839.09C184.305 1845.48 190.775 1869 196.489 1882.5C201.344 1893.98 211.158 1909.85 211.158 1922.62" stroke="black" stroke-width="2" stroke-linecap="round"/>
<path d="M243.49 1938.78C270.991 1954.5 290.024 1973.99 321.626 1981.89" stroke="black" stroke-width="2" stroke-linecap="round"/>
<path d="M340.487 1984.59C353.45 1985.13 367.272 1992.82 380.303 1995.37C394.742 1998.2 410.508 2000.74 424.011 2006.15" stroke="black" stroke-width="2" stroke-linecap="round"/>
<path d="M510.23 2016.92C505.519 2023.73 496.097 2041.17 508.883 2041.17C517.597 2041.17 524.935 2045.77 532.982 2041.17C545.938 2033.77 514.156 2016.92 508.134 2016.92C501.248 2016.92 496.827 2013.11 489.873 2014.38C480.439 2016.09 469.784 2029.61 472.659 2039.67C474.141 2044.86 490.065 2049.2 493.465 2054.64C497.091 2060.44 509.494 2060.42 515.619 2063.32C531.339 2070.77 547.498 2047.64 539.868 2034.29C534.267 2024.48 518.778 2014.82 507.536 2014.23C500.079 2013.84 490.329 2006.22 484.484 2011.53C476.612 2018.69 466.515 2020.98 461.732 2031.74C457.934 2040.29 454.9 2042.54 466.971 2046.56C475.524 2049.41 482.018 2055.54 489.873 2060.03C495.63 2063.32 501.89 2070.62 508.134 2074.7C516.406 2080.11 530.743 2081.63 539.868 2076.8C545.95 2073.58 541.612 2059.5 542.712 2053.45C544.25 2044.98 550.533 2034.52 557.381 2029.2C571.391 2018.3 543.711 2006.66 534.479 2006.15C526.891 2005.72 518.127 2000.35 511.577 1996.71C499.602 1990.06 483.338 2001.11 471.312 2003.3C457.44 2005.82 431.812 2024.35 438.082 2041.77C442.862 2055.05 465.188 2067.23 475.353 2074.85C493.983 2088.82 525.672 2089.88 547.352 2083.68C557.89 2080.67 564.781 2074.67 564.117 2062.73C563.991 2060.47 562.104 2054.38 560.824 2052.55C558.018 2048.54 582.047 2046.89 585.672 2046.56" stroke="black" stroke-width="2" stroke-linecap="round"/>
<path d="M588.366 2097.75C604.201 2117.14 614.63 2140.84 620.698 2165.11" stroke="black" stroke-width="2" stroke-linecap="round"/>
<path d="M626.087 2219C626.087 2242.62 631.676 2279.32 618.004 2299.83" stroke="black" stroke-width="2" stroke-linecap="round"/>
<path d="M599.144 2348.33C577.199 2364 553.031 2376.77 529.091 2388.74" stroke="black" stroke-width="2" stroke-linecap="round"/>
<path d="M475.204 2450.71C455.748 2451.59 443.776 2458.65 425.508 2462.68C409.241 2466.28 390.012 2470.4 375.513 2477.65" stroke="black" stroke-width="2" stroke-linecap="round"/>
<path d="M278.517 2496.51C271.377 2496.51 215.511 2490.5 211.158 2499.21" stroke="black" stroke-width="2" stroke-linecap="round"/>
<path d="M165.355 2536.93C151.405 2548.96 135.779 2562.81 131.676 2581.68C130.517 2587.01 132.493 2596.47 127.634 2598.9" stroke="black" stroke-width="2" stroke-linecap="round"/>
<path d="M149.189 2663.56C141.387 2689.89 154.577 2711.47 154.577 2736.31" stroke="black" stroke-width="2" stroke-linecap="round"/>
<path d="M181.521 2771.34C192.81 2792.03 207.613 2810.09 225.528 2825.22C231.437 2830.21 238.926 2836.6 240.796 2844.08" stroke="black" stroke-width="2" stroke-linecap="round"/>
<path d="M283.906 2876.42C300.612 2890.34 323.799 2900.85 342.582 2912.04C352.47 2917.93 373.085 2928.14 378.208 2938.39" stroke="black" stroke-width="2" stroke-linecap="round"/>
<path d="M424.011 2973.41C443.204 2978.21 460.346 2998.73 477.898 3007.84C493.537 3015.96 510.155 3019.19 526.396 3024.6" stroke="black" stroke-width="2" stroke-linecap="round"/>
<path d="M636.864 3048.85C631.898 3048.85 617.985 3046.48 614.112 3050.35C609.901 3054.56 611.403 3071.66 615.309 3075.8C624.422 3085.45 629.617 3086.82 640.756 3080.14C645.409 3077.35 657.723 3071.63 658.419 3065.02C662.143 3029.64 593.755 3023.1 593.755 3063.67C593.755 3072.99 626.84 3085.8 635.517 3090.62C646.512 3096.72 667.754 3103.65 674.585 3086.57C681.417 3069.49 682.929 3058.93 665.304 3048.85C645.316 3037.43 632.387 3019.22 606.628 3019.22C587.872 3019.22 564.117 3046.77 564.117 3064.42C564.117 3080.72 595.265 3093.6 607.825 3097.95C630.09 3105.66 680.229 3137.59 693.445 3101.24C700.457 3081.96 705.088 3070.34 696.14 3050.2C688.223 3032.39 675.485 3023.56 658.419 3015.03C650.524 3011.08 642.143 3008.69 634.17 3005.15C626.542 3001.76 619.116 3004.64 611.268 3002.9C596.603 2999.64 572.2 2999.78 572.2 3021.91" stroke="black" stroke-width="2" stroke-linecap="round"/>
</svg>
